<?xml version="1.0" encoding="utf-8"?>
<!-- Generator: Adobe Illustrator 21.1.0, SVG Export Plug-In . SVG Version: 6.00 Build 0)  -->
<svg version="1.1" id="Layer_1" xmlns="http://www.w3.org/2000/svg" xmlns:xlink="http://www.w3.org/1999/xlink" x="0px" y="0px"
	 viewBox="0 0 64 64" style="enable-background:new 0 0 64 64;" xml:space="preserve">
<style type="text/css">
	.st0{fill:#A59482;}
</style>
<g>
	<g>
		<path class="st0" d="M40.5,42.8c-0.1-0.3-0.4-0.5-0.7-0.6c-0.2-0.1-0.1,0.1-0.2,0.2c-0.3-0.5-0.9-0.6-1.4-0.9c-0.1,0-0.1,0-0.2,0
			c-0.4,0.1-0.7,0-1-0.2c0.2,0.5,0.8,0.8,1.1,1.3c-0.4-0.1-0.6-0.4-0.9-0.6c0.1,0.2,0,0.3-0.1,0.4c-0.2,0.2-0.4,0.2-0.7,0.1
			c-0.1,0-0.1,0-0.1,0.1c0,0.1,0.1,0.1,0.1,0.1c0.1,0.1,0.3,0.2,0.2,0.3c-0.1,0.2,0.1,0.2,0.2,0.2c0.1,0,0.2,0,0.3,0.1
			c0,0.4,0.4,0.5,0.6,0.7c0,0,0.1,0.1,0.2,0.1c0.1,0.1,0.3,0.1,0.1,0.2c-0.1,0.1-0.2,0-0.3-0.1c-0.2-0.2-0.4-0.4-0.7-0.5
			c-0.1,0-0.1-0.1-0.2,0c-0.1,0.1,0,0.1,0,0.2c0.1,0.1,0.1,0.1,0.2,0c0-0.1,0.1,0,0.1,0c-0.1,0.4,0.4,0.5,0.6,0.8
			c0.1,0.1,0.2,0.2,0.3,0.4c-0.3-0.1-0.4-0.3-0.6-0.4c-0.1,0-0.1-0.3-0.3,0c-0.1,0.1-0.2-0.2-0.3-0.1c-0.1,0.2,0.1,0.3,0.1,0.5
			c-0.1,0.1-0.2-0.1-0.2,0c0,0.2,0.2,0.2,0.2,0.3c-0.1,0.1-0.2-0.1-0.3,0c-0.1,0.4,0.3,0.6,0.4,0.9c-0.2,0-0.3-0.2-0.4-0.3
			c-0.2-0.3-0.4-0.5-0.8-0.7c-0.2-0.1-0.4-0.3-0.4-0.5c0-0.3-0.4-0.6-0.7-0.7c-0.1,0-0.2-0.1-0.2-0.2c-0.2-0.4-0.4-0.7-0.7-0.9
			c-0.2-0.1-0.3-0.4-0.4-0.6c-0.1-0.4-0.4-0.6-0.6-0.9c-0.1-0.1-0.2-0.1-0.1-0.3c0.1-0.1,0.2,0.1,0.3,0.1c-0.1-0.3-0.5-0.6-0.8-0.6
			c-0.2,0-0.1-0.1-0.2-0.2c0-0.1,0-0.2-0.1-0.2c-0.1,0-0.1,0.1-0.2,0.2c0,0.1,0,0.2-0.1,0.2c-0.1,0-0.2,0-0.2-0.1
			c0-0.2-0.2-0.2-0.3-0.3c-0.1,0.1,0.1,0.1,0,0.2c-0.1,0-0.2-0.1-0.3-0.1c-0.1,0-0.2-0.1-0.3-0.1c0.3,0.4,0.8,0.7,1.1,1.1
			c-0.4-0.1-0.7-0.1-0.8-0.6c-0.1-0.4-0.7-0.5-1-0.3c-0.1,0.1-0.3-0.1-0.4,0.2c-0.1,0.4,0.2,0.5,0.3,0.8c-0.2,0.1-0.3-0.2-0.5-0.2
			c-0.2,0-0.3,0.1-0.3,0.3c0.1-0.4,0.3-0.3,0.5-0.1c0,0.1,0.2,0,0.3,0.1c0.2,0,0.3,0.1,0.4,0.3c0,0,0,0.1,0,0.1
			c-0.3-0.2-0.4,0.3-0.7,0.3c-0.7-0.1-0.7,0-0.9,0.7c-0.1,0.4-0.3,0.8,0,1.2c-0.5-0.5-0.5-1.1-0.3-1.7c-0.4,0.6-0.8,1.2-1.4,1.7
			c0,0,0,0,0,0c0-0.4,0-0.8,0-1.2c0-0.3,0.3-0.4,0.5-0.6c0.1-0.1,0.3-0.1,0.2-0.3c0-0.1-0.2-0.1-0.4-0.1c-0.1,0-0.3,0-0.3,0.1
			c-0.1,0.2-0.3,0.5-0.3,0.7c0,0.2-0.4,0.3-0.2,0.6c-0.7-0.1-0.7,0.4-0.6,0.8c-0.4-0.5-0.3-0.9-0.1-1.3c0.2-0.3,0.3-0.7,0.5-1
			c0.2-0.4,0.5-0.7,0.7-1c0.3-0.5,0.8-1,1.1-1.5c-0.1-0.1-0.3,0.3-0.3-0.1c0-0.1-0.2-0.2-0.4-0.1c-0.2,0.1-0.3,0-0.4-0.1
			c-0.1-0.1-0.1-0.2,0.1-0.2c0.1,0,0.2,0.1,0.2-0.1c0-0.1,0-0.2-0.1-0.2c-0.1,0-0.2-0.1-0.1-0.2c0.1-0.1,0.1-0.1,0.2,0
			c0.1,0.1,0.2,0.1,0.3,0c0.1-0.1-0.1-0.2-0.1-0.2c-0.2-0.3-0.4-0.3-0.5,0c0,0.1-0.1,0.1-0.1,0.1c-0.3-0.2-0.7-0.3-0.8-0.6
			c0,0,0-0.1-0.1-0.1c-0.1,0,0,0.1,0,0.1c0,0.1-0.1,0.2-0.2,0.3c-0.1-0.3-0.4-0.6-0.4-0.9c-0.1-0.3-0.1-0.4-0.4-0.2
			c-0.1,0-0.1,0-0.2,0c-0.2-0.1-0.4-0.1-0.6-0.1c-0.2,0-0.3-0.1-0.3-0.3c0-0.4-0.3-0.8-0.5-1.2c0,0,0-0.1-0.1,0
			c-0.1,0.2-0.2,0-0.1-0.1c0.1-0.2,0-0.4,0.1-0.6c0.2,0.1,0.1,0.3,0.2,0.4c0.5,0.3,0.3,0.7,0.5,1.1c0.2,0.5,0.3,0.5,0.9,0.4
			c0.1,0,0.2,0,0.3-0.1c-0.1-0.1-0.3-0.1-0.5-0.1c-0.1,0-0.2,0-0.1-0.1c0-0.1,0.1-0.1,0.2-0.1c0.2,0,0.4,0,0.5-0.1
			c0.1,0,0.2,0,0.2-0.1c0-0.1-0.1-0.3-0.3-0.3c-0.1,0-0.2-0.1-0.2,0.1c0,0.1-0.2,0.2-0.3,0.1c-0.2-0.1,0-0.2,0.1-0.3
			c0.1-0.1,0.1-0.2,0-0.3c-0.2-0.2-0.4-0.4-0.5-0.6c-0.1-0.2-0.2-0.1-0.3,0c0,0.1-0.1,0.2-0.2,0.1c-0.1,0-0.1-0.1-0.1-0.2
			c0.1-0.2,0-0.2-0.1-0.4c-0.1,0.2-0.1,0.3-0.3,0.1c-0.2-0.2-0.3-0.4-0.5-0.6c-0.1,0.1-0.1,0.2-0.1,0.3C22,34,21.9,34,21.7,34
			c-0.2,0-0.2,0-0.2-0.2c0-0.1-0.1-0.1-0.1-0.1c-0.1,0-0.1-0.1,0-0.1c0.2,0,0.1-0.1,0-0.1c-0.1,0,0-0.1,0-0.2c0-0.1,0.1-0.2,0-0.3
			c-0.1-0.1-0.2,0.1-0.4,0.1c0-0.2-0.1-0.4,0.2-0.5c-0.3-0.4-0.9-0.4-1.2-0.8c-0.1-0.1-0.2-0.2-0.2-0.3c-0.1-0.2-0.1-0.3-0.4-0.3
			c-0.1,0-0.2-0.2-0.3-0.3c0-0.1,0.1-0.2,0.2-0.2c0.1,0,0.1,0,0.1-0.1c0-0.1,0-0.2-0.2-0.2c-0.2,0-0.2-0.1-0.1-0.2
			c0.1-0.2-0.1-0.4-0.2-0.6c-0.1-0.3-0.1-0.4,0.2-0.5c0.9-0.3,1.9-0.3,2.9-0.1c0.2,0,0.4,0.1,0.6,0.1c0.5,0.1,0.5,0,0.5-0.4
			c0-0.5-0.1-1-0.2-1.6c-0.1-0.6,0.1-1.1,0.5-1.5c0.2-0.3,0.4-0.5,0.6-0.8c0.3-0.4,0.4-0.9,0.5-1.3c0.1-0.4,0.3-0.8,0.4-1.3
			c0-0.2,0.3-0.5,0-0.8c0,0,0-0.1,0-0.1c0.5-0.2,0.3-0.7,0.5-1c0.1-0.1,0-0.4,0.3-0.4c0.3,0,0.2,0.3,0.2,0.4c0.1,0.5,0,1.1-0.1,1.6
			c0,0.1-0.1,0.2,0,0.2c0.1,0,0.1-0.1,0.2-0.2c0.3-0.8,0.6-1.7,0.8-2.6c0.1-0.3,0.1-0.6,0.2-0.9c0.2-0.6,0-1.3,0-1.9
			c0-0.2,0-0.4,0.2-0.5c0.2,0,0.3,0.2,0.4,0.3c0.4,0.6,0.3,1.2,0.3,1.8c0,0.7-0.2,1.4-0.3,2.1c0,0.2-0.2,0.3-0.2,0.5
			c-0.1,0.1-0.1,0.3-0.1,0.5c0.3-0.4,0.7-0.7,0.6-1.1c0-0.1,0-0.2,0.1-0.2c0.5-0.2,0.5-0.6,0.5-1c-0.1-0.4-0.2-0.7-0.1-1.1
			c0.2,0.4,0.1,0.8,0.3,1.2c0.4-0.4,0.1-0.8,0.2-1.3c0.2,0.2,0,0.3,0.1,0.5c0.3-0.4,0.3-0.9,0.6-1.4c0.2-0.3,0.3-0.6,0.3-1
			c0-0.1,0.1-0.3,0.3-0.3c0.2,0,0.2,0.2,0.3,0.3c0.1,0.3,0.2,0.6,0.1,0.9c-0.1,0.5-0.2,1-0.3,1.5c-0.1,0.2-0.1,0.4,0,0.6
			c0.5-0.7,0.4-1.5,0.6-2.2c0.1,0.2,0,0.5,0.2,0.7c0.2-0.3,0.1-0.6,0.2-0.9c0.1-0.2,0-0.4,0.2-0.5c0.2,0,0.4,0.2,0.5,0.4
			c0.1,0.2,0.1,0.4,0.2,0.6c0.1,0,0.1-0.1,0.2-0.1c0.1-0.1,0.2-0.2,0.4-0.1c0.2,0.1,0,0.2,0,0.3c0,0.1,0,0.1,0,0.2
			c0,0.1-0.1,0.2,0,0.2c0.1,0,0.2,0,0.2-0.1c0.1-0.1,0.2-0.2,0-0.3c0,0-0.1-0.1,0-0.1c0.4-0.1,0.7-0.3,0.9-0.6
			c0-0.1,0.1-0.1,0.1-0.2c0.1-0.1,0.1-0.2,0.2-0.1c0.1,0,0.1,0.1,0,0.2c-0.1,0.1-0.1,0.3-0.2,0.4c-0.2,0.2-0.3,0.4-0.3,0.6
			c0.1-0.1,0.1-0.1,0.2-0.2c-0.1,0.6-0.5,1.2-0.3,1.9c0.2-0.6,0.3-1.1,0.7-1.5c0.1-0.1,0.1-0.3,0.3-0.3l0,0c0,0,0,0,0.1-0.1l0,0
			c0.1,0,0.2-0.1,0.4-0.2c-0.4,0.4-0.1,0.7,0.1,0.9c0.1,0.1,0,0.2,0,0.2c0,0.1,0,0.3,0.2,0.3c0.1-0.2-0.1-0.4,0.3-0.4
			c0.2,0,0.3-0.3,0.5-0.5c0.1,0.1-0.1,0.2,0.1,0.3c0.2,0,0.3-0.1,0.3-0.3c0.1-0.1,0.1-0.2,0.2-0.2c0.1-0.1,0.2-0.1,0.3-0.1
			c0.1,0.1,0,0.2,0,0.2c0,0,0,0.1,0,0.1c-0.1,0.3-0.2,0.6-0.7,0.6c-0.3,0-0.4,0.3-0.5,0.6c0,0.1,0,0.2-0.2,0.2
			c-0.3,0-0.5,0.2-0.6,0.4c-0.1,0.2-0.3,0.4-0.5,0.6c-0.1,0.1-0.2,0.2,0,0.3c0.1,0.1,0,0.2-0.1,0.3c-0.1,0.1-0.2,0.1-0.3,0
			c-0.1-0.1-0.1,0-0.1,0c-0.1,0.1-0.2,0.2-0.2,0.3c0,0.1,0.1,0.1,0.2,0.1c0.5,0,1.1,0.1,1.6,0.2c0,0,0,0,0,0
			c0.6,0.1,0.5,0.1,0.7-0.4c0.1-0.2,0.2-0.4,0.3-0.6c0.1-0.1,0.2-0.1,0.3,0c0.1,0.1,0.2,0.3,0.1,0.3c-0.3,0-0.2,0.3-0.3,0.4
			c-0.1,0.1-0.2,0.3-0.2,0.4c0,0.1-0.1,0.2,0,0.2c0.1,0,0.2,0,0.3-0.1c0.2-0.2,0.4-0.3,0.5-0.6c0.3-0.4,0.6-0.8,0.8-1.3
			c0.2-0.5,0.5-0.9,0.6-1.4c0-0.1,0.1-0.2,0-0.3c0,0-0.1-0.1,0-0.1c0.5-0.5,0.3-1.2,0.4-1.8c0-0.1,0-0.2,0-0.3c0,0,0,0,0.1-0.1
			c0.2,0.5,0.2,1,0.2,1.6c-0.1,0.6-0.2,1.1-0.5,1.6c-0.1,0.1-0.2,0.4,0,0.5c0.3,0.1,0.4-0.1,0.5-0.3c0.6-0.8,1-1.7,1.2-2.7
			c0-0.2,0.1-0.5-0.1-0.7c0,0,0-0.1,0-0.1c0.4-0.2,0.1-0.6,0.2-0.8c0.4,0.3,0.4,0.7,0.4,2.4c0,0.9-0.6,1.5-1,2.3
			c0.3,0,0.4-0.2,0.6-0.4c0.5-0.6,0.9-1.3,1.2-2c0.2-0.6,0.3-1.1,0.3-1.7c0-0.1,0-0.2,0.1-0.2c0.1,0,0.2,0.1,0.2,0.1
			c0.3,0.5,0.4,1,0.3,1.6c-0.1,0.4-0.2,0.9-0.5,1.3c-0.1,0.2,0.1,0.4-0.1,0.7c0.2-0.1,0.4-0.2,0.5-0.4c0.4-0.5,0.9-0.9,1.2-1.5
			c0.1-0.1,0.1-0.3,0.3-0.2c0.1,0.1,0.1,0.2,0,0.4c-0.1,0.4-0.3,0.8-0.6,1.1c-0.1,0.2-0.1,0.3-0.1,0.5c0.1,0.4-0.2,0.8-0.5,1.2
			c0,0.1-0.1,0.1-0.1,0.2c-0.3,0.4-0.3,0.4,0.1,0.7c0.2,0.2,0.4,0.3,0.5,0.6c0.1,0.2,0.1,0.3-0.1,0.4c-0.1,0.1-0.3,0.1-0.1,0.3
			c0.1,0.1,0,0.1-0.1,0.1c-0.5,0-0.7,0.3-1.1,0.5c-0.6,0.4-1.1,0.9-1.7,1.3c-0.2,0.1-0.3,0.3,0.1,0.3c0.3,0.1,0.3,0.3,0.2,0.5
			c-0.1,0.2-0.4,0.4-0.7,0.5c0.5,0,1-0.4,1-0.7c0,0,0,0,0,0c0.1-0.1-0.3-0.1-0.1-0.2c0.1-0.1,0.3-0.1,0.5-0.1c0.1,0,0.2,0.1,0.1,0.2
			c-0.2,0.1-0.3,0.3-0.4,0.5c-0.1,0.2-0.3,0.3-0.5,0.5c0.7,0,1.2,0,1.8,0c0.3,0,0.3-0.2,0.4-0.4c0.1-0.1,0.2-0.4,0.4-0.4
			c0.1,0-0.1,0.3-0.2,0.4c-0.1,0.1-0.3,0.3,0.1,0.3c0.1,0,0.1,0.1,0,0.2c-0.1,0.2-0.2,0.4-0.4,0.3c-0.5,0-0.6,0.3-1,0.5
			c0,0-0.1,0.1,0,0.1c0.3,0.1,0,0.2,0,0.2c-0.5,0.3-1.1,0.6-1.6,0.9c0,0-0.1,0-0.1,0c0,0.3-0.3,0.2-0.4,0.2c-0.6,0-0.9,0.5-1.4,0.6
			c0.1,0.1,0.2,0,0.2,0.1c0.1,0,0.2,0.1,0.2,0.2c0,0.1-0.1,0.1-0.2,0.1c-0.5,0-0.8,0.2-1.2,0.4c0.1,0.1,0.3,0,0.5,0.1
			c-0.4,0.1-0.8,0.3-1.1,0.2c-0.3,0-0.4,0-0.6,0.2c0,0.1-0.1,0.1-0.2,0.2c0.6-0.2,1.2-0.3,1.8-0.5c0,0,0.1-0.1,0.1-0.1
			c0.2-0.3,0.5-0.3,0.8-0.1c-0.2,0.3-0.7,0.2-1,0.5c0.4,0,0.8-0.1,1.1-0.1c0.3,0,0.5-0.1,0.8-0.1c0.1,0,0.2,0,0.2,0.1
			c0,0.1-0.1,0.1-0.2,0.1c-0.3,0-0.7,0-1,0.1c-0.3,0-0.7,0-0.9,0.3c-0.1,0.1-0.3,0-0.5,0.2c0.1,0.2,0.3,0,0.4,0.2c-0.4,0-0.7,0-1,0
			c0,0,0,0,0,0.1c0.4,0,0.9,0.1,1.3,0.1c-0.1,0.2-0.3,0-0.5,0.2c0.5,0,0.9,0,1.4,0.2c-0.5,0.1-1,0-1.4,0c0.3,0.1,0.3,0.3,0.5,0.4
			c0.5,0.2,1.1,0.3,1.7,0.4c0,0,0.1,0,0.1,0c0.2-0.3,0.4-0.1,0.6,0c0.1,0.1,0.1,0.2,0,0.3c-0.1,0.1-0.1,0.2-0.3,0.2
			c-1.1-0.4-2.2-0.3-3.4-0.2c-0.7,0-1.3-0.1-2-0.1c-0.1,0-0.2,0-0.2-0.2c0-0.1-0.1-0.1-0.2-0.1c-0.1,0.1-0.3,0.1-0.3,0.2
			c0,0.1,0.2,0.2,0.3,0.2c0.3,0.1,0.7,0.3,1.1,0.3c0.1,0,0.2,0,0.2,0.1c0,0.2-0.2,0-0.2,0.1c-0.4,0.2-0.8-0.1-1.3,0
			c-0.2,0-0.3,0-0.4,0.1c0,0,0,0,0.1,0c0.2,0,0.5,0,0.5,0.2c0,0.2-0.3,0.2-0.5,0.2c-0.1,0-0.3,0-0.5,0c0.1,0.1,0.2,0.2,0.4,0.2
			c0.3,0.1,0.7,0.1,1,0.3c0.3,0.1,0.5,0.1,0.4-0.2c0.1,0,0.1,0.3,0.3,0c0.1-0.1,0.2-0.2,0.4-0.1c0.2,0.1,0.2,0.2,0.2,0.3
			c0,0.1-0.2,0.3,0,0.3c0.2,0.1,0.4,0.1,0.6,0.1c0.4,0,0.8,0,1.1-0.1c0.2,0,0.3,0.1,0.5,0.2c-0.4,0.3-0.8-0.2-1.2,0
			c0.2,0.1,0.5,0.1,0.6,0.2c0,0.1-0.1,0.1-0.1,0.1c-0.7-0.1-1.5-0.2-2.3-0.4C34.8,34,34.6,34,34.4,34c-0.1,0-0.2-0.1-0.2,0.1
			c0,0.1,0.1,0.1,0.2,0.2c0.4,0.1,0.7,0.1,1.1,0.2c0.2,0,0.4,0.1,0.6,0.1c-0.8,0-1.5,0-2.4-0.2c0.2,0.1,0.3,0.2,0.5,0.2
			c0.1,0,0.1,0,0.1,0.1c0,0.1-0.1,0.1-0.2,0.1c-0.1,0-0.2,0-0.3,0.1c-0.1,0-0.2-0.1-0.2-0.1c-0.1,0-0.3,0-0.3-0.2
			c0-0.1,0.2-0.2,0.2-0.3c0.1-0.1,0.2,0,0.3,0c0.2,0,0.2-0.1,0.2-0.2c0-0.1-0.1-0.2-0.2-0.2c-0.1,0-0.2,0-0.3-0.1
			c-0.2-0.1-0.6,0-0.6-0.4c0-0.1-0.1-0.1-0.2,0c0,0.1-0.1,0.2-0.1,0.2c-0.2,0.2-0.4,0.5,0.1,0.6c0,0,0,0.1,0,0.1
			c-0.3-0.2-0.5,0-0.6,0.2c0,0.1-0.1,0.1-0.1,0.2c0,0.1-0.2,0.1-0.1,0.2c0,0.1,0.1,0,0.2,0c0.2,0,0.3-0.1,0.4-0.2
			c0.1,0.1,0.2,0.3,0.5,0.3c0.2,0,0.4,0.1,0.5,0.3c0.1,0.1,0.3,0.1,0.4,0.1c0.1-0.4-0.3-0.4-0.6-0.4c0.2-0.1,0.4-0.1,0.6-0.1
			c0.5,0.1,1,0.1,1.5,0.3c-0.4,0.1-0.7-0.1-1,0c0.4,0.1,0.7,0.2,1.1,0.1c0.6-0.1,1.1-0.2,1.7,0c0.2,0.1,0.6,0,0.9,0
			c-0.2,0.2-0.3,0.1-0.5,0.1c0,0.1,0.2,0.1,0.3,0.3c-0.7-0.2-1.4-0.4-2.1-0.2c0.2,0.1,0.5,0.1,0.5,0.3l0,0c0.1,0.1,0.1,0.1,0.2,0.2
			c0,0,0,0,0.1,0c0,0,0,0.1,0,0.1c0.1,0,0.1,0,0.2,0.1c0.1,0.1,0.3,0.1,0.3,0.3c-0.3,0.1-0.5-0.1-0.8-0.1c-0.1,0-0.2-0.1-0.2,0
			c0,0.2,0.1,0.1,0.2,0.1c0.6,0.1,1.1,0.2,1.7,0.3c0.1,0,0.2,0,0.3,0.1c-0.3,0-0.5-0.1-0.8-0.1c-0.1,0-0.3-0.1-0.3,0.1
			c0,0.1,0.2,0.1,0.3,0.1c0.1,0,0.3-0.1,0.4,0.1c-0.2-0.1-0.4,0.2-0.6,0c-0.2-0.1-0.4-0.1-0.5-0.3c-0.2,0.3-0.4,0.3-0.7,0.1
			c-0.1-0.1-0.2-0.1-0.3-0.2c-0.1,0-0.1,0-0.2,0c-0.1,0.1,0,0.1,0,0.1c0,0,0.1,0,0.1,0.1c0.1,0.2,0.1,0.2,0.4,0.2
			c0.3,0,0.5,0.2,0.8,0.2c0.6,0.2,1.2,0.4,1.9,0.5c0.1,0,0.2,0.1,0.2,0.1c-0.3,0.1-0.6-0.1-1-0.2c-0.1,0.2,0.1,0.4-0.1,0.4
			c-0.4,0-0.8,0.1-0.9-0.4c0.2,0,0.4,0.2,0.6,0.2c0.1,0,0.2,0.1,0.3,0c0-0.1,0-0.2-0.1-0.3c-0.5-0.1-0.9-0.2-1.4-0.3
			c-0.1,0-0.2,0.1-0.2,0.2c0,0.2,0.1,0.4,0.3,0.5c0.5,0.2,0.9,0.5,1.4,0.6c0.4,0.1,0.6,0.3,0.9,0.5c-0.1,0.2-0.3-0.1-0.3,0.1
			c0,0.1,0.1,0.2,0.2,0.3c0.1,0,0.1,0.1,0.2,0.2c0.2,0.4,0.6,0.4,1,0.4c0.6,0,1.1,0.2,1.7,0.2c-0.1,0.2-0.3,0.1-0.4,0.1
			c0.2,0.1,0.4,0.1,0.7-0.1c0.1,0.2-0.3,0.2-0.2,0.4c0.1,0.2,0.3,0.2,0.4,0.4c-0.3-0.1-0.6-0.1-0.9-0.2c-0.1-0.1-0.3-0.2-0.4,0.1
			c-0.1,0.2-0.1,0-0.2,0c-0.2,0-0.5,0-0.7,0c0.2,0.1,0.5,0.2,0.5,0.5c0,0.1,0.3,0.1,0.4,0.2c-0.1,0.2-0.2,0-0.3,0.1
			c0.1,0.1,0.2,0.1,0.3,0.1c0.1,0,0.2,0.1,0.4,0c0.1-0.1,0-0.2-0.1-0.3c0-0.1,0-0.1,0.1-0.2c0.2,0.3,0.6,0.4,0.9,0.6c0,0,0,0-0.1,0
			c-0.2,0-0.4-0.2-0.5,0c-0.1,0.1,0.3,0.2,0.4,0.3c0.4,0.2,0.8,0.2,1.2,0.2c0.2,0,0.2,0.2,0.4,0.3c0.1,0,0.1,0.2,0.2,0.3
			c0.1,0.1-0.1,0.1-0.1,0.2c-0.1,0-0.2,0.1-0.2-0.1c0-0.3-0.3-0.2-0.4-0.2c-0.1,0-0.1,0.1-0.1,0.2c0,0.1,0.1,0.2,0.2,0.2
			c-0.1,0.1-0.1-0.1-0.2,0c0.3,0.1,0.5,0.3,0.5,0.6c0,0.2,0.2,0.3,0.3,0.4c0.1,0,0.1,0.1,0.1,0.2c0,0.1-0.1,0.1-0.2,0.1
			c-0.2,0-0.3-0.1-0.4-0.2c-0.6-0.6-1.4-1.1-2-1.7c-0.1-0.1-0.3-0.2-0.5-0.2C40.6,42.9,40.5,42.9,40.5,42.8z M33.6,36.9
			c-0.2,0-0.1,0.1,0,0.2c0.3,0.1,0.4,0.4,0.8,0.4c0.3,0.1,0.5,0.4,0.9,0.4c0,0,0.1,0.1,0.1,0.1c0.1,0,0-0.1,0-0.2
			c0-0.4-0.5-0.7-0.9-0.7c-0.1,0-0.2,0-0.2-0.1c-0.1-0.2-0.3-0.2-0.5-0.2C33.7,36.8,33.7,36.8,33.6,36.9z M27.9,41.5
			c0.1,0,0.2,0,0.2-0.1c0.2-0.1,0.3-0.3,0.4-0.5c0.1-0.1,0.2-0.3-0.1-0.3c-0.2,0-0.1-0.1-0.1-0.2c0.1-0.2,0-0.3-0.1-0.4
			c-0.1-0.1-0.2,0.1-0.3,0.2c-0.1,0-0.1,0.1-0.1,0.2c-0.1,0.3-0.4,0.4-0.4,0.7c0,0.3-0.1,0.3,0.3,0.3C27.7,41.5,27.8,41.5,27.9,41.5
			z M33.2,41.3c-0.1,0-0.1,0-0.1,0.1c0,0.1,0,0.2,0.1,0.2c0.1,0,0.2,0,0.2,0.1c0.1,0.6,0.6,1,0.9,1.5c0.2,0.2,0.4,0.1,0.5,0
			c0.2-0.1,0-0.2-0.1-0.3c-0.1-0.1-0.1-0.2-0.2-0.3c-0.4-0.4-0.9-0.7-1.2-1.2C33.3,41.4,33.2,41.3,33.2,41.3z M38.8,40.9
			c0.4,0,0.8,0,1.1-0.2c0,0,0,0,0,0c0.4,0,0.9,0.1,1.3,0.3c0.1,0,0.3,0.1,0.3-0.1c0-0.1-0.1-0.2-0.2-0.2c-0.2,0-0.3-0.1-0.5,0
			c-0.1,0-0.2,0-0.4,0c-0.3-0.1-0.7-0.1-1-0.2c-0.1,0-0.2,0-0.3,0c-0.3,0.2-0.4,0-0.4-0.2C38.5,40.5,38.8,40.7,38.8,40.9z
			 M33.3,35.7c0.1,0.1,0.3,0.1,0.4,0.1c0.2,0,0.5,0,0.6,0.1c0.4,0.2,0.8,0.3,1.2,0.4c0.1,0,0.2,0,0.2-0.1c0-0.1,0.1-0.3,0-0.4
			c-0.1-0.1-0.2,0-0.3,0c0,0-0.1,0-0.1,0C34.5,35.9,33.9,35.7,33.3,35.7z"/>
		<path class="st0" d="M15.3,30.4c0.4-0.3,0.8-0.4,1.1-0.5c0.5-0.1,0.9-0.2,1.4-0.2c0.2,0,0.5,0,0.5,0.1c0,0.2,0.1,0.4-0.1,0.5
			c0,0,0,0,0,0.1c0.2,0.1,0.3,0,0.5,0.2c-0.1,0.1-0.4,0.1-0.3,0.3c0,0-0.1,0-0.1,0C17.2,30.7,16.3,30.6,15.3,30.4z"/>
		<path class="st0" d="M39.3,43.2c0-0.1-0.1-0.3,0-0.3c0.1,0,0.2,0.1,0.2,0.2c0.2,0.2,0.4,0.5,0.8,0.3c0.1,0,0.2,0,0.2,0.1
			c0,0.3,0.2,0.3,0.4,0.4c0.1,0.1,0.2,0.1,0.2,0.3c0,0.1-0.2,0.2-0.3,0.2c-0.1,0-0.2-0.1-0.2-0.2c-0.2-0.2-0.5-0.4-0.7-0.5
			c-0.2-0.1-0.3-0.1-0.4-0.2C39.4,43.4,39.2,43.4,39.3,43.2z"/>
		<path class="st0" d="M40.5,42.8c0,0,0.1,0.1,0.1,0.1c0.2,0.3,0.5,0.6,0.7,0.9c0.2,0.2,0.3,0.4,0.3,0.6c-0.2,0-0.3-0.1-0.3-0.2
			c0-0.3-0.4-0.4-0.5-0.7c0-0.1-0.2-0.2-0.3-0.3c-0.3-0.1-0.3-0.3-0.4-0.6C40.4,42.6,40.4,42.8,40.5,42.8z"/>
		<path class="st0" d="M34.3,17.5c-0.2,0.1-0.2,0.2-0.3,0.3c-0.1-0.2,0-0.4,0.2-0.5C34.2,17.4,34.2,17.5,34.3,17.5z"/>
		<path class="st0" d="M36.9,36.1c-0.1,0-0.1,0-0.2-0.1c0,0,0.1-0.1,0.2-0.1C36.9,36,36.9,36.1,36.9,36.1z"/>
	</g>
	<g>
		<polygon class="st0" points="54.5,57.7 56,56.5 56.1,54.2 56.6,50.7 55.5,41.1 56.8,30.7 56.8,30.1 56.5,29.8 56.1,29.3 
			56.4,28.2 56.1,28.1 56.8,21.4 56.5,16.9 56.7,13.9 57.3,12 57,11.7 57,11 56.6,9.6 56.8,6.5 56.8,2.2 56.3,1.6 55.7,1.6 
			55.9,2.8 55.5,2.7 55.7,4.5 55.9,5 55.6,5.2 55.7,10.1 55.2,13.9 55.3,19.5 54.9,20.1 55.1,32.5 54.5,42.8 54.3,51.3 		"/>
		<polygon class="st0" points="5,63 6.5,59.9 6.2,55.2 6.9,49.8 6.6,48.4 6.9,41.4 7.3,40.3 6.7,39.7 7.2,32.6 7.1,27.6 6.8,27.4 
			7.4,24.8 7,16.2 7.4,15.9 7,8.1 7.4,8.4 7.4,6.5 7.7,5.5 7,3.5 6.4,3.8 6.4,4.7 5.9,4.8 6.2,12.1 5.6,12.2 5.8,19.1 5.8,19.7 
			5.5,20.2 5.2,30.2 5.6,30.9 6,36.4 5.5,35.9 4.6,45.8 5.1,47.8 4.6,52.6 5.2,58.4 4.6,58.6 4.5,61.5 		"/>
		<polygon class="st0" points="0,53.3 1.8,54.1 11.3,53.3 15.1,54.3 39.4,53.3 47.5,54.8 47,53.7 64.1,54.8 62.2,54.1 62.9,52.5 
			55.8,53 50.7,52.2 34.5,52.5 24.7,51.7 16.1,52.2 3.7,52.4 		"/>
		<polygon class="st0" points="63.4,9.5 58.4,8.7 48.1,9.3 38.9,8.6 27.4,8.4 18.6,10 13.3,9.5 0,10.8 1.9,9.9 3.5,7.7 10.1,8.6 
			19.9,8.6 30.2,7 43,7.9 49.6,7.8 60.5,7.9 		"/>
	</g>
</g>
</svg>
