<svg id="Layer_1" data-name="Layer 1" xmlns="http://www.w3.org/2000/svg" viewBox="0 0 14.49 15.52"><title>iconInsta</title><polygon points="12.32 14.18 12.66 13.88 12.68 13.31 12.78 12.41 12.55 9.99 12.85 7.34 12.85 7.19 12.76 7.11 12.67 7.01 12.75 6.73 12.68 6.69 12.85 5 12.78 3.87 12.81 3.1 12.95 2.63 12.88 2.53 12.88 2.38 12.79 2.01 12.85 1.24 12.84 0.15 12.71 0 12.58 0 12.63 0.3 12.54 0.27 12.58 0.72 12.63 0.84 12.55 0.89 12.59 2.15 12.47 3.1 12.5 4.52 12.41 4.68 12.44 7.81 12.32 10.4 12.27 12.55 12.32 14.18"/><polygon points="1.14 15.53 1.48 14.73 1.39 13.55 1.57 12.2 1.5 11.84 1.57 10.06 1.65 9.78 1.5 9.63 1.63 7.84 1.61 6.57 1.54 6.51 1.68 5.86 1.59 3.67 1.68 3.6 1.58 1.63 1.68 1.72 1.68 1.23 1.73 0.97 1.57 0.48 1.44 0.54 1.44 0.77 1.33 0.8 1.4 2.63 1.27 2.68 1.3 4.41 1.32 4.57 1.24 4.7 1.17 7.24 1.27 7.4 1.36 8.78 1.25 8.67 1.04 11.17 1.16 11.69 1.04 12.89 1.18 14.36 1.04 14.42 1.01 15.15 1.14 15.53"/><polygon points="0 13.07 0.4 13.27 2.54 13.07 3.4 13.33 8.9 13.07 10.74 13.46 10.62 13.18 14.49 13.46 14.06 13.26 14.2 12.87 12.6 13 11.44 12.8 7.8 12.87 5.58 12.66 3.63 12.8 0.83 12.83 0 13.07"/><polygon points="14.32 1.98 13.19 1.78 10.88 1.94 8.78 1.76 6.2 1.72 4.21 2.1 3 2 0 2.32 0.43 2.1 0.8 1.53 2.29 1.76 4.49 1.76 6.82 1.37 9.71 1.6 11.21 1.56 13.66 1.59 14.32 1.98"/><path d="M11.84,7.67c0,.58,0,1.16,0,1.74a2.69,2.69,0,0,1-.44,1.51,2.23,2.23,0,0,1-1.52.93,8.57,8.57,0,0,1-1.4.08H6.23a4.16,4.16,0,0,1-1.33-.17A2.14,2.14,0,0,1,3.42,10a6.61,6.61,0,0,1-.1-1.16c0-.85,0-1.71,0-2.57A4.08,4.08,0,0,1,3.5,5,2.14,2.14,0,0,1,5.21,3.52a6.74,6.74,0,0,1,1.15-.1c.85,0,1.7,0,2.56,0a4.12,4.12,0,0,1,1.33.17A2.19,2.19,0,0,1,11.73,5.3a6,6,0,0,1,.09,1.18c0,.4,0,.8,0,1.19Zm-.77,0h0c0-.36,0-.72,0-1.07A10.55,10.55,0,0,0,11,5.51,1.43,1.43,0,0,0,9.82,4.28a5.75,5.75,0,0,0-1.19-.09q-1.06,0-2.12,0a8,8,0,0,0-1.1.08,1.4,1.4,0,0,0-1.2,1,4,4,0,0,0-.12,1.1c0,.58,0,1.16,0,1.74s0,1.05.06,1.57a1.44,1.44,0,0,0,1.18,1.35,5.61,5.61,0,0,0,1.2.09q1.06,0,2.12,0a7.87,7.87,0,0,0,1.1-.08A1.39,1.39,0,0,0,10.94,10,2.74,2.74,0,0,0,11,9.41C11.06,8.83,11.06,8.25,11.07,7.67Z" transform="translate(-0.44 -0.24)"/><path d="M9.76,7.67a2.19,2.19,0,1,1-4.37,0,2.19,2.19,0,0,1,4.37,0ZM9,7.68A1.42,1.42,0,1,0,7.57,9.09,1.43,1.43,0,0,0,9,7.68Z" transform="translate(-0.44 -0.24)"/><path d="M9.85,4.89a.5.5,0,0,1,.51.51.51.51,0,0,1-.51.51.52.52,0,0,1-.52-.52A.51.51,0,0,1,9.85,4.89Z" transform="translate(-0.44 -0.24)"/></svg>